<svg viewBox="90 125 410 120" xmlns="http://www.w3.org/2000/svg"><defs><style>@media (prefers-color-scheme:dark){.logo-node{fill:#378add}.logo-line,.logo-node{stroke:#85b7eb}.logo-text-main{fill:#e6f1fb}.logo-text-sub{fill:#85b7eb}.logo-badge{fill:#0c447c;stroke:#378add}.logo-badge-text{fill:#b5d4f4}}@media (prefers-color-scheme:light){.logo-node{fill:#185fa5;stroke:#0c447c}.logo-line{stroke:#378add}.logo-text-main{fill:#042c53}.logo-badge,.logo-text-sub{fill:#185fa5}.logo-badge{stroke:#0c447c}.logo-badge-text{fill:#e6f1fb}}</style></defs><circle class="logo-node" cx="190" cy="158" r="8" stroke-width="1.2"/><circle class="logo-node" cx="235" cy="145" r="8" stroke-width="1.2"/><circle class="logo-node" cx="280" cy="160" r="8" stroke-width="1.2"/><circle class="logo-node" cx="213" cy="173" r="6" stroke-width="1.2"/><circle class="logo-node" cx="258" cy="172" r="6" stroke-width="1.2"/><path class="logo-line" stroke-width="1.2" opacity=".8" d="m190 158 45-13m0 0 45 15"/><path class="logo-line" opacity=".7" d="m190 158 23 15m22-28-22 28m22-28 23 27m22-12-22 12"/><path class="logo-line" opacity=".6" d="m213 173 45-1"/><text font-family="var(--font-sans, sans-serif)" font-size="72" font-weight="700" letter-spacing="-3" x="90" y="192" class="logo-text-main">2S</text><text font-family="var(--font-sans, sans-serif)" font-size="52" font-weight="500" letter-spacing="-1" x="295" y="182" class="logo-text-main">Cloud</text><text font-family="var(--font-sans, sans-serif)" font-size="15" font-weight="400" x="300" y="208" class="logo-text-sub" letter-spacing=".5">Private cloud, open source</text><rect class="logo-badge" x="300" y="216" width="74" height="22" rx="6"/><text class="logo-badge-text" font-family="var(--font-sans, sans-serif)" font-size="11" font-weight="500" x="337" y="231" text-anchor="middle">Windows</text><rect class="logo-badge" x="380" y="216" width="52" height="22" rx="6"/><text class="logo-badge-text" font-family="var(--font-sans, sans-serif)" font-size="11" font-weight="500" x="407" y="231" text-anchor="middle">Linux</text><rect class="logo-badge" x="438" y="216" width="55" height="22" rx="6"/><text class="logo-badge-text" font-family="var(--font-sans, sans-serif)" font-size="11" font-weight="500" x="466" y="231" text-anchor="middle">macOS</text><path stroke-width=".5" stroke="var(--t)" opacity=".2" d="M130 210h210"/><text font-family="var(--font-sans, sans-serif)" font-size="11" font-weight="400" x="235" y="226" text-anchor="middle" class="logo-text-sub" opacity=".8">⬡ open-source</text></svg>